<svg preserveAspectRatio="none" overflow="visible" style="display: block;" width="58.197" height="90.9791" viewBox="0 0 58.197 90.9791" fill="none" xmlns="http://www.w3.org/2000/svg">
<path id="path2" d="M47.1502 45.2509C47.302 45.8025 47.4602 46.3521 47.5729 46.9128L47.9429 48.587L48.077 49.3674C49.1979 48.8152 51.0014 48.5733 52.0702 48.7363C54.6455 49.1275 57.3809 51.9987 58.197 53.0001C56.9621 53.3782 53.0934 54.2408 50.7356 53.1324C50.0127 52.7928 49.0774 52.045 48.387 51.2405L48.4737 51.9726C48.5375 52.5405 48.6157 53.1064 48.6665 53.6749C48.7205 54.5746 48.8019 55.4723 48.8306 56.372C49.9476 56.0584 51.5915 56.1145 52.53 56.4189C54.8441 57.1713 56.9309 60.2335 57.5314 61.2806C56.3362 61.441 52.6388 61.6489 50.6334 60.2694C50.0583 59.8737 49.3666 59.1213 48.8586 58.3331C48.8579 59.918 48.7667 61.5022 48.6033 63.0774C49.7476 62.799 51.5609 63.035 52.5294 63.4699C54.7503 64.4667 56.4958 67.7349 56.981 68.8407C55.7755 68.8713 52.0773 68.6816 50.2315 67.0941C49.5926 66.5445 48.8404 65.4596 48.4391 64.4582C48.2464 65.8958 48.0008 67.3262 47.6836 68.7403C48.8579 68.6483 50.6243 69.1888 51.5133 69.784C53.5356 71.1395 54.7093 74.6548 55.0024 75.8264C53.8079 75.6543 50.1944 74.8458 48.6404 72.9715C48.1187 72.3417 47.5762 71.1988 47.3365 70.1687C47.2967 70.3206 47.2564 70.4732 47.214 70.6251C46.8389 72.0079 46.4051 73.3731 45.914 74.7174C47.0017 74.8021 48.5824 75.6367 49.3047 76.3584C50.8978 77.9485 51.3362 81.3471 51.3935 82.462C50.341 82.093 47.2062 80.7147 46.1309 78.736C45.7675 78.0691 45.4783 76.9275 45.4464 75.9463C45.2985 76.3219 45.1455 76.6954 44.9885 77.067C44.6218 77.9302 44.2291 78.7817 43.8123 79.6201C44.7501 79.9422 45.9674 81.0733 46.4416 81.8922C47.4772 83.6792 47.0883 86.789 46.8851 87.7885C46.0456 87.2102 43.6097 85.2413 43.1167 83.2352C42.9773 82.6693 42.9584 81.8231 43.0704 81.0492C42.6894 81.754 42.2915 82.4483 41.8759 83.1328C42.2778 84.0677 42.1566 85.8828 41.7887 86.8301C41.0188 88.8133 38.2703 90.4999 37.337 90.9791C37.2614 89.9314 37.2764 86.7043 38.5705 85.017C39.1645 84.2431 40.5583 83.2495 41.5594 83.0455C42.0518 82.1921 42.5181 81.3237 42.9571 80.4422C42.3833 81.0277 41.4676 81.574 40.8306 81.752C39.117 82.2305 36.6101 81.2089 35.8214 80.8145C36.4851 80.2329 38.6526 78.6109 40.4313 78.6402C41.2702 78.6539 42.6914 79.1285 43.3029 79.7329C43.7491 78.7973 44.1646 77.8474 44.5469 76.8845C44.7182 76.4516 44.8837 76.0167 45.0426 75.5793C44.4662 76.1302 43.6123 76.6302 43.0079 76.7991C41.2943 77.277 38.7874 76.256 37.9987 75.8609C38.6617 75.2794 40.8299 73.6573 42.6087 73.6866C43.398 73.6997 44.7013 74.1202 45.363 74.6724C45.8359 73.289 46.2481 71.8853 46.5966 70.4673C46.6448 70.2756 46.691 70.0846 46.736 69.8923C46.2664 70.5983 45.5493 71.3011 44.9859 71.6291C43.2808 72.624 40.3043 72.2315 39.3469 72.0294C39.896 71.219 41.7678 68.8694 43.6853 68.4012C44.5606 68.1874 46.1413 68.2839 46.9913 68.7227C47.2915 67.2434 47.5117 65.7491 47.6745 64.2502C47.2538 64.998 46.5712 65.7647 46.0221 66.1357C44.3867 67.2414 41.3907 67.0478 40.4222 66.9096C40.9165 66.064 42.6288 63.5957 44.5105 63.0011C45.3565 62.7344 46.904 62.7214 47.7891 63.0845C47.9279 61.4951 47.993 59.8978 47.9643 58.3031C47.7149 59.0059 47.3495 59.6892 46.9971 60.1097C45.6157 61.7559 42.423 62.4495 41.3686 62.5949C41.633 61.5629 42.6868 58.4674 44.4785 57.2821C45.2757 56.7554 46.8669 56.2827 47.9025 56.385C47.8582 55.5121 47.7637 54.6417 47.696 53.7701C47.6367 53.2139 47.5495 52.6611 47.4778 52.1063L47.371 51.322C47.1867 52.1688 46.8096 53.0659 46.424 53.5927C45.1559 55.3263 42.0159 56.2312 40.9732 56.447C41.1693 55.3993 42.0153 52.2406 43.7243 50.9386C44.4877 50.3577 46.0534 49.7781 47.0929 49.8166L46.9008 48.8022L46.5093 47.1716C46.3901 46.6253 46.226 46.0913 46.0677 45.5554L45.8326 44.7515C45.8228 44.719 45.8131 44.6857 45.804 44.6531C45.7252 45.5564 45.4255 46.5672 45.0758 47.1638C43.9881 49.0179 40.9563 50.2358 39.9409 50.5553C40.0295 49.4932 40.5525 46.2647 42.1215 44.7972C42.8236 44.14 44.3274 43.4033 45.3656 43.3394L45.0289 42.3713C44.8491 41.8432 44.6186 41.3327 44.416 40.8131L44.1021 40.0373C43.9972 39.7791 43.8715 39.5294 43.7569 39.2751L43.6683 39.0848C43.6214 39.7973 43.4781 40.5008 43.2762 40.9852C42.4074 43.0741 39.4192 44.7776 38.4058 45.2562C38.3465 44.1361 38.4312 40.6951 39.8575 38.9394C40.4294 38.2353 41.6623 37.3734 42.6848 37.0461C41.9932 35.7252 41.2494 34.4337 40.4496 33.178C40.5655 33.8587 40.5915 34.5465 40.5153 35.0485C40.1767 37.2853 37.688 39.6617 36.8198 40.3717C36.4922 39.2992 35.7432 35.9384 36.7039 33.89C37.1123 33.019 38.1993 31.7952 39.1561 31.2724C39.001 31.0618 38.8454 30.8519 38.6936 30.64L38.2 29.9665L37.6763 29.3171C37.3226 28.8862 36.9879 28.4422 36.6205 28.025L36.2447 27.6012C36.4851 28.3092 36.631 29.0394 36.6362 29.589C36.659 32.0495 34.397 35.0328 33.5874 35.9449C33.0507 34.8503 31.6654 31.3715 32.3427 29.0055C32.6326 27.9911 33.6024 26.4714 34.5468 25.7516L34.3683 25.5658L33.7893 24.9666C33.5965 24.7658 33.3868 24.5826 33.1868 24.3903L31.9715 23.2507L30.7086 22.1645C31.005 22.8615 31.2082 23.591 31.2538 24.1458C31.4537 26.5991 29.4125 29.7377 28.6713 30.7058C28.0565 29.6523 26.4237 26.2829 26.9291 23.874C27.1349 22.8928 27.9191 21.4135 28.7599 20.594C28.543 20.4225 28.3235 20.255 28.0962 20.0978L26.7461 19.1212C26.2869 18.8089 25.8173 18.5123 25.3536 18.2065C25.1211 18.0546 24.8924 17.8962 24.656 17.7501L23.9396 17.3251C23.9103 17.3081 23.881 17.2912 23.8523 17.2749C24.4535 18.1726 24.9335 19.2607 25.0846 20.0548C25.6017 22.7715 23.696 26.5229 22.9828 27.6938C22.1706 26.59 19.9438 23.0206 20.22 20.2687C20.3385 19.088 21.109 17.2116 22.0098 16.2272L21.0237 15.705C20.5345 15.4377 20.02 15.2258 19.5211 14.978L18.7675 14.6188C18.5161 14.4969 18.255 14.4004 17.999 14.2902L16.4561 13.6467L15.0792 13.1493C15.8126 13.9121 16.4587 14.8626 16.7459 15.5967C17.7541 18.1713 16.572 22.2102 16.0868 23.4926C15.0851 22.5577 12.2395 19.4596 12.0044 16.7044C11.9054 15.5394 12.3027 13.5933 12.9885 12.4524C11.0528 11.8493 9.0774 11.3734 7.07529 11.0109C7.92198 11.5031 8.72049 12.1472 9.1751 12.7079C10.9167 14.8555 11.015 19.0625 10.9414 20.4316C9.70331 19.8455 6.05274 17.7586 4.99306 15.2043C4.51956 14.062 4.31114 11.9191 4.70062 10.6367C3.16875 10.4293 1.62515 10.2853 0.0756938 10.1992C0.0353127 10.1966 0.00209226 10.1646 0.000138338 10.1236C-0.00246689 10.0792 0.0320562 10.0414 0.0756938 10.0395C1.67596 9.96123 3.28142 9.97297 4.88494 10.0714C4.67131 8.44544 5.61896 5.72091 6.5816 4.42939C8.61107 1.70813 13.5838 0.324674 15.2342 0C14.9099 1.6514 13.5271 6.62909 10.8086 8.66058C9.92801 9.31906 8.37921 9.97036 6.96847 10.2487C9.08978 10.4789 11.2 10.8609 13.2764 11.3884C13.4268 9.75 14.8011 7.34885 15.9474 6.28094C18.4308 3.96846 23.5709 3.50035 25.2526 3.47623C24.6371 5.04353 22.3856 9.69263 19.3479 11.2032C18.4484 11.6498 17.0032 11.9908 15.6641 12.0625C18.1742 12.8442 20.6225 13.841 22.9711 15.04C23.2153 13.5913 24.3597 11.6361 25.3249 10.7384C27.5472 8.66905 32.1467 8.24985 33.6512 8.22899C33.1009 9.63069 31.0857 13.7908 28.3672 15.1417C27.4599 15.5928 25.9306 15.9234 24.6176 15.924C25.1517 16.2239 25.6792 16.5356 26.2016 16.8576C27.4645 17.6185 28.6759 18.4614 29.8482 19.3559C30.4181 17.9985 32.0842 16.3354 33.2787 15.6997C35.9595 14.2746 40.5114 15.0569 41.9704 15.4259C41.0774 16.6379 38.0586 20.1363 35.0834 20.7407C34.1176 20.9363 32.6111 20.8698 31.3612 20.5536C31.5006 20.6677 31.6393 20.7817 31.7774 20.8971L33.0748 22.0315L34.3162 23.2266C34.5207 23.4287 34.7343 23.621 34.9304 23.8303L35.5211 24.4581L35.6963 24.6452C36.4505 23.4984 38.0111 22.2682 39.1066 21.8249C41.76 20.7511 45.9518 21.9311 47.2844 22.4201C46.3283 23.4691 43.1544 26.4544 40.3063 26.7282C39.4759 26.8084 38.2579 26.6474 37.193 26.311C38.282 27.5973 39.2915 28.9481 40.2483 30.3335C41.151 29.2937 42.9161 28.2786 44.0839 27.9982C46.8675 27.33 50.8386 29.119 52.0832 29.7996C50.9825 30.6954 47.4023 33.1767 44.5443 33.0255C43.6761 32.9798 42.4315 32.6128 41.4018 32.088C42.2667 33.4818 43.0626 34.9168 43.7966 36.3824C44.7886 35.4201 46.7119 34.568 47.9318 34.4128C50.7708 34.0503 54.5243 36.2598 55.6882 37.0722C54.497 37.8428 50.6692 39.9206 47.8445 39.4596C46.9053 39.3071 45.5584 38.7223 44.5534 38.0032L44.8954 38.7738C45.0081 39.0365 45.1325 39.2947 45.2354 39.5613L45.5434 40.3632C45.7421 40.8998 45.9681 41.4266 46.1433 41.971L46.3973 42.7429C47.4159 42.0009 49.3008 41.4931 50.4348 41.5263C53.0387 41.6013 56.1024 44.1178 57.0344 45.013C55.8549 45.5379 52.1197 46.8652 49.6447 46.0522C48.8182 45.7805 47.6843 45.0599 46.8812 44.2684C46.8956 44.32 46.9099 44.3721 46.9236 44.4236L47.1502 45.2509Z" fill="#477CB0"/>
</svg>
